<svg width="120" height="26" viewBox="0 0 120 26" fill="none" xmlns="http://www.w3.org/2000/svg">
<path d="M19.5942 23.8896C19.1023 25.533 14.3268 25.5555 8.92624 23.9401C3.52706 22.3261 -0.450846 19.6857 0.0411358 18.0422C0.533117 16.4002 5.30856 16.3778 10.7091 17.9917C16.1083 19.6057 20.0862 22.2476 19.5928 23.8896H19.5942ZM13.0513 13.1708C7.08446 15.3906 1.32926 14.7273 0.195318 11.6914C-0.93722 8.65417 2.98041 4.39414 8.94866 2.17438C14.9141 -0.0439756 20.6693 0.619288 21.8033 3.65516C22.9358 6.69103 19.0182 10.9511 13.0513 13.1708Z" fill="#FF6E32"/>
<path d="M49.6903 12.2424C49.354 11.7813 48.8797 11.4448 48.2726 11.2353C48.6493 11.0648 48.9597 10.811 49.1992 10.4776C49.6247 9.88504 49.8413 9.13181 49.8413 8.23815C49.8413 7.25587 49.6568 6.47861 49.2945 5.9289C48.9246 5.36792 48.3534 4.97291 47.5939 4.75512C46.8709 4.54786 45.9375 4.44272 44.821 4.44272H32.98V20.6225H44.0165C45.2168 20.6225 46.2349 20.5624 47.0418 20.443C47.8722 20.3199 48.5441 20.0953 49.039 19.7761C49.5492 19.4465 49.9191 18.9779 50.1349 18.3816C50.2935 17.9453 50.3934 16.7302 50.4308 16.1129C50.443 15.9229 50.4483 15.0397 50.4483 14.8332C50.4483 13.8029 50.1944 12.931 49.6918 12.2424H49.6903ZM35.2915 6.41929H44.821C45.5524 6.41929 46.1335 6.45834 46.5453 6.53569C46.9068 6.60328 47.1523 6.75047 47.2949 6.98327C47.4505 7.2356 47.5298 7.65765 47.5298 8.23815C47.5298 8.97561 47.3979 9.49604 47.1378 9.78366C46.8778 10.072 46.4622 10.2493 45.9024 10.3108C45.2893 10.3777 44.4893 10.4115 43.5238 10.4115H35.2922V6.41929H35.2915ZM47.9516 17.6261C47.8394 17.9325 47.6534 18.1503 47.3819 18.2907C47.0883 18.4424 46.6704 18.54 46.1411 18.5806C45.5859 18.6234 44.8706 18.6444 44.0157 18.6444H35.2915V12.3888H43.5231C44.1904 12.3888 44.8218 12.4076 45.4014 12.4444C45.9619 12.4804 46.4599 12.575 46.8816 12.729C47.2797 12.8739 47.5809 13.1022 47.8036 13.4296C48.024 13.7541 48.1353 14.2264 48.1353 14.834C48.1353 15.0495 48.1849 15.9327 48.1697 16.1136C48.1414 16.4471 48.0301 17.4091 47.9508 17.6261H47.9516Z" fill="#FF6E32"/>
<path d="M65.0447 10.8896C64.8952 10.0936 64.5955 9.46054 64.157 9.00845C63.7162 8.55411 63.0741 8.2372 62.2482 8.06598C61.4551 7.90227 60.4004 7.81891 59.1147 7.81891C57.9242 7.81891 56.9244 7.85646 56.1397 7.93156C55.3344 8.00815 54.6869 8.1606 54.2156 8.38364C53.7154 8.61945 53.3547 8.97391 53.1442 9.43576C52.9451 9.87658 52.8437 10.4556 52.8437 11.1577V11.4003H55.1552V11.1577C55.1552 10.8483 55.1849 10.596 55.2429 10.4083C55.2879 10.2656 55.4023 10.1567 55.5944 10.0733C55.827 9.97346 56.219 9.90137 56.7605 9.86006C57.324 9.81726 58.1164 9.79623 59.1147 9.79623C59.984 9.79623 60.6894 9.82852 61.2103 9.89235C61.693 9.95168 62.0599 10.0816 62.2993 10.2806C62.5327 10.4736 62.6966 10.7845 62.7851 11.2036C62.8697 11.6031 62.9231 12.143 62.9437 12.8114C62.4175 12.716 61.8311 12.6462 61.1958 12.6049C60.4424 12.5546 59.496 12.529 58.3856 12.529C57.0083 12.529 55.8781 12.5989 55.0255 12.7378C54.1257 12.8835 53.4546 13.2117 53.029 13.7118C52.6081 14.2075 52.3922 15.759 52.3884 16.7773C52.3884 17.7911 52.6187 18.9641 53.0725 19.462C53.5224 19.9562 54.2088 20.2791 55.1109 20.421C55.9689 20.5562 57.0709 20.6246 58.3856 20.6246C59.3678 20.6246 60.1876 20.5908 60.8214 20.5247C61.4681 20.4578 61.9958 20.3519 62.3908 20.2085C62.599 20.1342 62.7851 20.0455 62.9506 19.9449V20.4195H65.2621V13.8455C65.2621 12.6484 65.1888 11.6541 65.0439 10.8912L65.0447 10.8896ZM62.9498 17.1558C62.9468 17.5418 62.9018 17.8437 62.8171 18.0525C62.7432 18.2349 62.5845 18.3671 62.3336 18.455C62.04 18.5579 61.5779 18.6232 60.9617 18.6465C60.3249 18.6705 59.4578 18.6833 58.3856 18.6833C57.5399 18.6833 56.8512 18.6675 56.3403 18.6375C55.8499 18.6074 55.4762 18.5413 55.2314 18.4407C55.0225 18.3551 54.8982 18.2252 54.8212 18.0555C54.783 17.9714 54.7228 17.8527 54.6686 17.6544C54.6145 17.4562 54.5672 17.1791 54.5565 16.7766C54.5184 15.7898 54.7258 15.2776 54.8227 15.1079C54.9195 14.9382 55.0248 14.7947 55.2337 14.7061C55.4778 14.6025 55.8507 14.5334 56.341 14.5011C56.7178 14.4771 57.1875 14.4643 57.7442 14.4643C57.9456 14.4643 58.1583 14.465 58.3825 14.4688L62.9506 14.5221V15.9332C62.9506 15.9467 62.9506 15.9595 62.9498 15.973V17.1558Z" fill="#FF6E32"/>
<path d="M70.0742 4.44183H67.7627V20.6224H70.0742V4.44183Z" fill="#FF6E32"/>
<path d="M74.9235 4.44183H72.6121V6.71729H74.9235V4.44183Z" fill="#FF6E32"/>
<path d="M74.9235 8.62021H72.6121V20.6223H74.9235V8.62021Z" fill="#FF6E32"/>
<path d="M90.1276 12.9203V20.6216H87.807V12.9203C87.807 12.2121 87.746 11.6376 87.6255 11.2126C87.5149 10.8198 87.3258 10.5209 87.065 10.3234C86.7943 10.1207 86.4069 9.98099 85.9142 9.90889C85.3918 9.83304 84.7154 9.7955 83.904 9.7955C82.6701 9.7955 81.6916 9.89538 80.9984 10.0936C80.3395 10.2821 79.872 10.5728 79.6097 10.961C79.342 11.356 79.2055 11.887 79.2055 12.5381V20.6216H76.894V8.02319H79.2055V9.05729C79.3977 8.88006 79.6089 8.72085 79.8392 8.58117C80.264 8.32433 80.8345 8.12983 81.5338 8.00367C82.2178 7.88051 83.123 7.81818 84.2258 7.81818C85.6732 7.81818 86.8354 7.96011 87.6812 8.24098C88.5658 8.53536 89.2056 9.06855 89.5808 9.82854C89.9423 10.5622 90.1269 11.6023 90.1269 12.9203H90.1276Z" fill="#FF6E32"/>
<path d="M104.276 9.2961C103.79 8.71484 103.053 8.31607 102.086 8.11256C101.157 7.9173 99.9737 7.81818 98.5675 7.81818C97.3427 7.81818 96.2895 7.88126 95.4377 8.00742C94.5584 8.13659 93.8354 8.40244 93.2879 8.79745C92.7289 9.19997 92.3209 9.80075 92.0761 10.5818C91.9449 11.0001 91.8496 12.0777 91.7917 12.6492C91.7436 13.1073 91.72 14.194 91.72 14.7452C91.72 16.0196 91.8435 17.0574 92.0853 17.8302C92.3377 18.63 92.7503 19.2413 93.3123 19.6468C93.8629 20.0448 94.592 20.3107 95.4781 20.4376C96.3345 20.56 97.3907 20.6216 98.6155 20.6216C99.6839 20.6216 100.62 20.5915 101.396 20.5322C102.193 20.4714 102.861 20.3287 103.383 20.1071C103.932 19.8743 104.348 19.4981 104.617 18.9882C104.877 18.4956 105.009 17.8212 105.009 16.9838V16.7413H102.821V16.9838C102.821 17.3789 102.773 17.692 102.679 17.9166C102.596 18.1126 102.436 18.2567 102.19 18.3596C101.91 18.476 101.485 18.5526 100.925 18.5887C100.342 18.6247 99.5657 18.6442 98.6147 18.6442C97.5616 18.6442 96.7097 18.6052 96.0821 18.5286C95.4888 18.4565 95.0427 18.3116 94.7574 18.0968C94.4806 17.888 94.2991 17.5809 94.2038 17.1543C94.1123 16.7435 94.0581 16.2006 94.0429 15.5375H105.008V11.8276C105.008 10.7305 104.762 9.8781 104.276 9.29535V9.2961ZM102.773 13.6442H94.0452C94.049 13.5001 94.0558 12.7806 94.0658 12.65C94.094 12.2775 94.1443 11.3778 94.2168 11.1187C94.3182 10.7507 94.5035 10.4834 94.7834 10.3009C95.077 10.1087 95.5246 9.97573 96.1118 9.90589C96.7265 9.83305 97.5532 9.79625 98.5682 9.79625C99.526 9.79625 100.305 9.83004 100.884 9.89688C101.438 9.96071 101.858 10.0719 102.13 10.2251C102.383 10.3677 102.546 10.554 102.632 10.7943C102.726 11.0624 102.774 11.4108 102.774 11.8284V13.6442H102.773Z" fill="#FF6E32"/>
<path d="M120 20.6238H116.971L112.7 15.7004L108.429 20.6238H105.4L111.14 14.218L105.67 8.02319H108.692L112.746 12.5628L116.706 8.02319H119.73L114.261 14.2082L120 20.6238Z" fill="#FF6E32"/>
</svg>
